<svg width="24" height="18" viewBox="0 0 24 18" fill="none" xmlns="http://www.w3.org/2000/svg">
<g id="iconmonstr-shopping-cart-3 1" clip-path="url(#clip0_652_976)">
<path id="Vector" d="M12 16.5C12 15.671 12.672 15 13.5 15C14.328 15 15 15.672 15 16.5C15 17.329 14.328 18 13.5 18C12.672 18 12 17.329 12 16.5Z" fill="black"/>
<path id="Vector_2" d="M8.5 18C9.328 18 10 17.329 10 16.5C10 15.672 9.328 15 8.5 15C7.672 15 7 15.672 7 16.5C7 17.329 7.672 18 8.5 18Z" fill="black"/>
<path id="Vector_3" d="M16.813 3L14.836 10H2.938L0 3H16.813Z" fill="black"/>
<path id="Vector_4" d="M16.3734 12L19.8054 0H24.0004L23.2574 2H21.3284L17.8544 14H4.61537L3.77637 12H16.3734Z" fill="black"/>
</g>
<defs>
<clipPath id="clip0_652_976">
<rect width="24.0004" height="18" fill="white"/>
</clipPath>
</defs>
</svg>
